<?xml version="1.0" encoding="utf-8"?>
<!-- Generator: Adobe Illustrator 28.0.0, SVG Export Plug-In . SVG Version: 6.00 Build 0)  -->
<svg version="1.1" id="Capa_1" xmlns="http://www.w3.org/2000/svg" xmlns:xlink="http://www.w3.org/1999/xlink" x="0px" y="0px"
	 viewBox="0 0 150 60" style="enable-background:new 0 0 150 60;" xml:space="preserve">
<style type="text/css">
	.st0{fill:#FFFFFF;}
	.st1{fill:none;}
	.st2{fill:#679DFF;}
</style>
<g id="Capa_8_00000012469477995667711590000006325597122569417915_">
	<path class="st0" d="M136.2,16.5c1.7,9,3.4,18,5.1,26.9h-8.1c-1.1-6.7-2.2-13.5-3.4-20.2c-4.2,6.7-8.7,13.5-13.5,20.2H81.7
		c1.1-2,2.2-4,3.3-6.1h17.3l-0.4-4.8H87.6c0.9-1.8,1.8-3.6,2.7-5.3h11.2c-0.1-1.6-0.2-3.1-0.4-4.7H91.1c-0.8,1.6-1.6,3.1-2.4,4.7
		c-0.9,1.8-1.8,3.6-2.8,5.3c-0.8,1.6-1.7,3.2-2.6,4.8c-1.1,2-2.2,4-3.4,6.1H69.1c-1.1-2-2.1-4-3.2-6.1c-0.8-1.6-1.6-3.2-2.4-4.8
		c-0.9-1.8-1.8-3.6-2.6-5.3c-0.7-1.6-1.5-3.1-2.2-4.7h-9.9c-0.1,1.6-0.2,3.1-0.4,4.7h10.8c0.8,1.8,1.7,3.6,2.6,5.3H48l-0.4,4.8h16.6
		c1,2,2.1,4,3.1,6.1H33.6c-4.8-6.7-9.3-13.5-13.5-20.2C19,30,17.9,36.7,16.8,43.5H8.7c1.7-9,3.4-18,5.1-26.9h12.5
		c4.1,6.6,8.5,13.2,13.1,19.8l0.3,0.4c0.7-6.7,1.4-13.5,2.1-20.2h28.5c0,2-0.1,4-0.1,6.1h-2.8v0c2.3,4.7,4.7,9.5,7.2,14.2
		c2.6-4.7,5.1-9.5,7.6-14.2v0h-2.5c0-2-0.1-4-0.1-6.1h28.5c0.7,6.7,1.4,13.5,2.1,20.2l0.3-0.4c4.7-6.6,9.1-13.2,13.1-19.8
		L136.2,16.5z"/>
	<path class="st1" d="M75,21l0.1-0.3"/>
	<polygon class="st2" points="80.9,23.4 74.7,34.9 68.7,23.4 70.6,23.4 74.7,9.2 79,23.4 	"/>
</g>
</svg>
