<?xml version="1.0" encoding="UTF-8"?>
<svg id="Capa_1" data-name="Capa 1" xmlns="http://www.w3.org/2000/svg" viewBox="0 0 684.18 511.62">
  <defs>
    <style>
      .cls-1 {
        letter-spacing: 0em;
      }

      .cls-2 {
        letter-spacing: -.02em;
      }

      .cls-3, .cls-4, .cls-5, .cls-6 {
        font-family: Montserrat-Regular, Montserrat;
      }

      .cls-7 {
        letter-spacing: -.02em;
      }

      .cls-8 {
        letter-spacing: 0em;
      }

      .cls-9 {
        letter-spacing: 0em;
      }

      .cls-10 {
        letter-spacing: 0em;
      }

      .cls-11 {
        letter-spacing: 0em;
      }

      .cls-12 {
        letter-spacing: 0em;
      }

      .cls-13 {
        letter-spacing: 0em;
      }

      .cls-14, .cls-15, .cls-16, .cls-17, .cls-18, .cls-19, .cls-20, .cls-21, .cls-22 {
        font-weight: 700;
      }

      .cls-14, .cls-15, .cls-17, .cls-20, .cls-22 {
        font-family: Montserrat-Bold, Montserrat;
      }

      .cls-14, .cls-4, .cls-5, .cls-20 {
        font-size: 12.26px;
      }

      .cls-23 {
        font-family: Roboto-Regular, Roboto;
      }

      .cls-24 {
        letter-spacing: .01em;
      }

      .cls-25 {
        letter-spacing: 0em;
      }

      .cls-26 {
        letter-spacing: 0em;
      }

      .cls-27 {
        letter-spacing: 0em;
      }

      .cls-28 {
        letter-spacing: 0em;
      }

      .cls-16, .cls-18, .cls-19, .cls-21 {
        font-family: Roboto-Bold, Roboto;
      }

      .cls-16, .cls-19, .cls-21 {
        font-size: 16.34px;
      }

      .cls-16, .cls-29, .cls-22 {
        fill: #0351ff;
      }

      .cls-17 {
        font-size: 10.73px;
      }

      .cls-30 {
        fill: none;
        opacity: .4;
        stroke: #838484;
        stroke-miterlimit: 10;
        stroke-width: 8px;
      }

      .cls-31 {
        letter-spacing: 0em;
      }

      .cls-32, .cls-33, .cls-34, .cls-35 {
        stroke-width: 0px;
      }

      .cls-32, .cls-21 {
        fill: #1585ff;
      }

      .cls-36 {
        letter-spacing: 0em;
      }

      .cls-5 {
        letter-spacing: 0em;
      }

      .cls-37, .cls-6 {
        font-size: 9.19px;
      }

      .cls-38 {
        letter-spacing: 0em;
      }

      .cls-39 {
        letter-spacing: 0em;
      }

      .cls-40 {
        letter-spacing: -.02em;
      }

      .cls-41 {
        letter-spacing: -.02em;
      }

      .cls-33 {
        fill: #fff;
      }

      .cls-19, .cls-34 {
        fill: #571cf9;
      }

      .cls-42 {
        letter-spacing: 0em;
      }

      .cls-43 {
        letter-spacing: 1.75em;
      }

      .cls-44 {
        letter-spacing: 0em;
      }

      .cls-45 {
        letter-spacing: 0em;
      }

      .cls-20 {
        letter-spacing: 0em;
      }

      .cls-46 {
        letter-spacing: 0em;
      }

      .cls-47 {
        letter-spacing: 0em;
      }

      .cls-48 {
        letter-spacing: 1.75em;
      }

      .cls-49 {
        letter-spacing: 0em;
      }

      .cls-50 {
        letter-spacing: .02em;
      }

      .cls-51 {
        letter-spacing: 0em;
      }

      .cls-52 {
        letter-spacing: 0em;
      }

      .cls-53 {
        letter-spacing: 0em;
      }

      .cls-54 {
        letter-spacing: -.02em;
      }

      .cls-35 {
        fill: blue;
      }

      .cls-55 {
        letter-spacing: -.01em;
      }

      .cls-22 {
        font-size: 18.39px;
      }

      .cls-56 {
        letter-spacing: 0em;
      }
    </style>
  </defs>
  <rect class="cls-30" x="23.54" y="32.61" width="192.55" height="308.49" rx="12" ry="12"/>
  <rect class="cls-30" x="245.37" y="32.61" width="192.55" height="308.49" rx="12" ry="12"/>
  <rect class="cls-30" x="467.21" y="32.61" width="192.55" height="308.49" rx="12" ry="12"/>
  <rect class="cls-30" x="23.54" y="347.75" width="192.55" height="139.43" rx="12" ry="12"/>
  <rect class="cls-30" x="245.37" y="347.75" width="192.55" height="139.43" rx="12" ry="12"/>
  <rect class="cls-30" x="467.21" y="347.75" width="192.55" height="139.43" rx="12" ry="12"/>
  <g>
    <rect class="cls-33" x="23.51" y="32.58" width="189.55" height="305.49" rx="10.5" ry="10.5"/>
    <path class="cls-32" d="m202.56,34.08c4.96,0,9,4.04,9,9v284.49c0,4.96-4.04,9-9,9H34.01c-4.96,0-9-4.04-9-9V43.08c0-4.96,4.04-9,9-9h168.55m0-3H34.01c-6.6,0-12,5.4-12,12v284.49c0,6.6,5.4,12,12,12h168.55c6.6,0,12-5.4,12-12V43.08c0-6.6-5.4-12-12-12h0Z"/>
  </g>
  <g>
    <rect class="cls-33" x="245.34" y="32.58" width="189.55" height="305.49" rx="10.5" ry="10.5"/>
    <path class="cls-35" d="m424.4,34.08c4.96,0,9,4.04,9,9v284.49c0,4.96-4.04,9-9,9h-168.55c-4.96,0-9-4.04-9-9V43.08c0-4.96,4.04-9,9-9h168.55m0-3h-168.55c-6.6,0-12,5.4-12,12v284.49c0,6.6,5.4,12,12,12h168.55c6.6,0,12-5.4,12-12V43.08c0-6.6-5.4-12-12-12h0Z"/>
  </g>
  <g>
    <rect class="cls-33" x="467.18" y="32.58" width="189.55" height="305.49" rx="10.5" ry="10.5"/>
    <path class="cls-34" d="m646.23,34.08c4.96,0,9,4.04,9,9v284.49c0,4.96-4.04,9-9,9h-168.55c-4.96,0-9-4.04-9-9V43.08c0-4.96,4.04-9,9-9h168.55m0-3h-168.55c-6.6,0-12,5.4-12,12v284.49c0,6.6,5.4,12,12,12h168.55c6.6,0,12-5.4,12-12V43.08c0-6.6-5.4-12-12-12h0Z"/>
  </g>
  <g>
    <rect class="cls-33" x="23.51" y="347.71" width="189.55" height="136.44" rx="10.5" ry="10.5"/>
    <path class="cls-32" d="m202.56,349.21c4.96,0,9,4.04,9,9v115.43c0,4.96-4.04,9-9,9H34.01c-4.96,0-9-4.04-9-9v-115.43c0-4.96,4.04-9,9-9h168.55m0-3H34.01c-6.6,0-12,5.4-12,12v115.43c0,6.6,5.4,12,12,12h168.55c6.6,0,12-5.4,12-12v-115.43c0-6.6-5.4-12-12-12h0Z"/>
  </g>
  <g>
    <rect class="cls-33" x="245.34" y="347.71" width="189.55" height="136.44" rx="10.5" ry="10.5"/>
    <path class="cls-35" d="m424.4,349.21c4.96,0,9,4.04,9,9v115.43c0,4.96-4.04,9-9,9h-168.55c-4.96,0-9-4.04-9-9v-115.43c0-4.96,4.04-9,9-9h168.55m0-3h-168.55c-6.6,0-12,5.4-12,12v115.43c0,6.6,5.4,12,12,12h168.55c6.6,0,12-5.4,12-12v-115.43c0-6.6-5.4-12-12-12h0Z"/>
  </g>
  <g>
    <rect class="cls-33" x="467.18" y="347.71" width="189.55" height="136.44" rx="10.5" ry="10.5"/>
    <path class="cls-34" d="m646.23,349.21c4.96,0,9,4.04,9,9v115.43c0,4.96-4.04,9-9,9h-168.55c-4.96,0-9-4.04-9-9v-115.43c0-4.96,4.04-9,9-9h168.55m0-3h-168.55c-6.6,0-12,5.4-12,12v115.43c0,6.6,5.4,12,12,12h168.55c6.6,0,12-5.4,12-12v-115.43c0-6.6-5.4-12-12-12h0Z"/>
  </g>
  <text class="cls-21" transform="translate(95 52.87)"><tspan x="0" y="0">BASIC</tspan></text>
  <text class="cls-16" transform="translate(314.93 52.87)"><tspan x="0" y="0">EXTRA</tspan></text>
  <text class="cls-19" transform="translate(524.26 52.87)"><tspan x="0" y="0">PREMIUM</tspan></text>
  <text class="cls-37" transform="translate(41.32 76.34)"><tspan class="cls-18"><tspan x="0" y="0">Chat-Bot:</tspan></tspan><tspan class="cls-23"><tspan class="cls-48" x="0" y="11.03">	</tspan><tspan class="cls-56" x="18.39" y="11.03">- Gestion de Citas/Rese</tspan><tspan class="cls-8" x="114.2" y="11.03">r</tspan><tspan class="cls-36" x="117.4" y="11.03">v</tspan><tspan x="121.78" y="11.03">as</tspan></tspan><tspan class="cls-23"><tspan class="cls-48" x="0" y="22.06">	</tspan><tspan class="cls-56" x="18.39" y="22.06">- Cancelación de Citas/Rese</tspan><tspan class="cls-8" x="133.11" y="22.06">r</tspan><tspan class="cls-36" x="136.3" y="22.06">v</tspan><tspan x="140.69" y="22.06">as</tspan></tspan><tspan class="cls-23"><tspan class="cls-48" x="0" y="33.1">	</tspan><tspan class="cls-56" x="18.39" y="33.1">- Sopo</tspan><tspan class="cls-50" x="44.31" y="33.1">r</tspan><tspan x="47.65" y="33.1">te pa</tspan><tspan class="cls-54" x="67.98" y="33.1">r</tspan><tspan x="70.92" y="33.1">a WhatsApp</tspan></tspan></text>
  <text class="cls-37" transform="translate(90.33 368.49)"><tspan class="cls-15"><tspan class="cls-55" x="0" y="0">P</tspan><tspan class="cls-51" x="6.59" y="0">a</tspan><tspan x="12.32" y="0">go inicial</tspan></tspan><tspan class="cls-3"><tspan x="-11.11" y="11.03">(pe</tspan><tspan class="cls-42" x="3.7" y="11.03">r</tspan><tspan x="7.35" y="11.03">sonaliz</tspan><tspan class="cls-28" x="38.91" y="11.03">a</tspan><tspan x="44.35" y="11.03">ción)</tspan></tspan></text>
  <text class="cls-37" transform="translate(40.95 152.54)"><tspan class="cls-18"><tspan class="cls-36" x="0" y="0">P</tspan><tspan x="5.92" y="0">ersonalización:</tspan></tspan><tspan class="cls-23"><tspan class="cls-48" x="0" y="11.03">	</tspan><tspan class="cls-56" x="18.39" y="11.03">- Chatbot (Básico)</tspan></tspan><tspan class="cls-23"><tspan class="cls-48" x="0" y="22.06">	</tspan><tspan class="cls-56" x="18.39" y="22.06">- Nomb</tspan><tspan class="cls-44" x="48.23" y="22.06">r</tspan><tspan x="51.26" y="22.06">e de Emp</tspan><tspan class="cls-44" x="89.21" y="22.06">r</tspan><tspan x="92.24" y="22.06">esa</tspan></tspan><tspan class="cls-23"><tspan class="cls-48" x="0" y="33.1">	</tspan><tspan class="cls-56" x="18.39" y="33.1">- Se</tspan><tspan class="cls-10" x="33.54" y="33.1">r</tspan><tspan x="36.74" y="33.1">vicios</tspan></tspan><tspan class="cls-23"><tspan class="cls-48" x="0" y="44.13">	</tspan><tspan class="cls-56" x="18.39" y="44.13">- Ho</tspan><tspan class="cls-54" x="35.01" y="44.13">r</tspan><tspan x="37.94" y="44.13">ario Abie</tspan><tspan class="cls-50" x="74.09" y="44.13">r</tspan><tspan class="cls-45" x="77.43" y="44.13">t</tspan><tspan x="80.35" y="44.13">o</tspan></tspan><tspan class="cls-23"><tspan class="cls-48" x="0" y="55.16">	</tspan><tspan class="cls-56" x="18.39" y="55.16">- Inte</tspan><tspan class="cls-10" x="38.67" y="55.16">r</tspan><tspan class="cls-53" x="41.86" y="55.16">v</tspan><tspan x="46.25" y="55.16">alo de Citas/Rese</tspan><tspan class="cls-8" x="118.28" y="55.16">r</tspan><tspan class="cls-36" x="121.47" y="55.16">v</tspan><tspan x="125.86" y="55.16">as</tspan></tspan></text>
  <text class="cls-37" transform="translate(256.89 76.34)"><tspan class="cls-18"><tspan x="0" y="0">Chat-Bot:</tspan></tspan><tspan class="cls-23"><tspan class="cls-48" x="0" y="11.03">	</tspan><tspan class="cls-56" x="18.39" y="11.03">- Gestion de Citas/Rese</tspan><tspan class="cls-8" x="114.2" y="11.03">r</tspan><tspan class="cls-36" x="117.4" y="11.03">v</tspan><tspan x="121.78" y="11.03">as</tspan></tspan><tspan class="cls-23"><tspan class="cls-48" x="0" y="22.06">	</tspan><tspan class="cls-56" x="18.39" y="22.06">- Cancelación de Citas/Rese</tspan><tspan class="cls-8" x="133.11" y="22.06">r</tspan><tspan class="cls-36" x="136.3" y="22.06">v</tspan><tspan x="140.69" y="22.06">as</tspan></tspan><tspan class="cls-23"><tspan class="cls-48" x="0" y="33.1">	</tspan><tspan class="cls-56" x="18.39" y="33.1">- Confirmación au</tspan><tspan class="cls-45" x="90.84" y="33.1">t</tspan><tspan x="93.76" y="33.1">omatica </tspan></tspan><tspan class="cls-23"><tspan class="cls-48" x="0" y="44.13">	</tspan><tspan class="cls-56" x="18.39" y="44.13">- Sopo</tspan><tspan class="cls-50" x="44.31" y="44.13">r</tspan><tspan x="47.65" y="44.13">te pa</tspan><tspan class="cls-54" x="67.98" y="44.13">r</tspan><tspan x="70.92" y="44.13">a WhatsApp y </tspan><tspan class="cls-7" x="129.4" y="44.13">W</tspan><tspan x="137.42" y="44.13">eb</tspan></tspan><tspan class="cls-23"><tspan class="cls-48" x="0" y="55.16">	</tspan><tspan class="cls-56" x="18.39" y="55.16">- Se</tspan><tspan class="cls-10" x="33.54" y="55.16">r</tspan><tspan x="36.74" y="55.16">vicio a domicilio</tspan></tspan></text>
  <text class="cls-37" transform="translate(487.2 76.34)"><tspan class="cls-18"><tspan x="0" y="0">Chat-Bot:</tspan></tspan><tspan class="cls-23"><tspan class="cls-43" x="0" y="11.03">	</tspan><tspan x="18.39" y="11.03">- Gestion de Citas/Rese</tspan><tspan class="cls-8" x="114.2" y="11.03">r</tspan><tspan class="cls-36" x="117.4" y="11.03">v</tspan><tspan x="121.78" y="11.03">as</tspan></tspan><tspan class="cls-23"><tspan class="cls-43" x="0" y="22.06">	</tspan><tspan x="18.39" y="22.06">- Cancelación de Citas/Rese</tspan><tspan class="cls-8" x="133.11" y="22.06">r</tspan><tspan class="cls-36" x="136.3" y="22.06">v</tspan><tspan x="140.69" y="22.06">as</tspan></tspan><tspan class="cls-23"><tspan class="cls-43" x="0" y="33.1">	</tspan><tspan x="18.39" y="33.1">- Confirmación au</tspan><tspan class="cls-45" x="90.84" y="33.1">t</tspan><tspan x="93.76" y="33.1">omatica </tspan></tspan><tspan class="cls-23"><tspan class="cls-43" x="0" y="44.13">	</tspan><tspan x="18.39" y="44.13">- Sopo</tspan><tspan class="cls-50" x="44.32" y="44.13">r</tspan><tspan x="47.66" y="44.13">te pa</tspan><tspan class="cls-54" x="67.98" y="44.13">r</tspan><tspan x="70.92" y="44.13">a WhatsApp y </tspan><tspan class="cls-7" x="129.4" y="44.13">W</tspan><tspan x="137.42" y="44.13">eb</tspan></tspan><tspan class="cls-23"><tspan class="cls-43" x="0" y="55.16">	</tspan><tspan x="18.39" y="55.16">- Se</tspan><tspan class="cls-8" x="33.54" y="55.16">r</tspan><tspan x="36.74" y="55.16">vicio a domicilio</tspan></tspan><tspan class="cls-23"><tspan class="cls-43" x="0" y="66.19">	</tspan><tspan x="18.39" y="66.19">- </tspan><tspan class="cls-52" x="23.21" y="66.19">P</tspan><tspan x="28.96" y="66.19">agos en Linea</tspan></tspan><tspan class="cls-23"><tspan class="cls-43" x="0" y="77.23">	</tspan><tspan x="18.39" y="77.23">- Integ</tspan><tspan class="cls-54" x="43.83" y="77.23">r</tspan><tspan x="46.77" y="77.23">ación con calendario o</tspan></tspan><tspan class="cls-23"><tspan class="cls-43" x="0" y="88.26" xml:space="preserve">		</tspan><tspan x="36.77" y="88.26">Google Calendar</tspan></tspan><tspan class="cls-23"><tspan class="cls-43" x="0" y="99.29">	</tspan><tspan x="18.39" y="99.29">- Sopo</tspan><tspan class="cls-50" x="44.32" y="99.29">r</tspan><tspan x="47.66" y="99.29">te Multilenguaje</tspan></tspan><tspan class="cls-23"><tspan class="cls-43" x="0" y="110.32">	</tspan><tspan x="18.39" y="110.32">- Mo</tspan><tspan class="cls-45" x="36.48" y="110.32">t</tspan><tspan x="39.4" y="110.32">or de Recomendaciones</tspan></tspan><tspan class="cls-23"><tspan class="cls-43" x="0" y="121.35">	</tspan><tspan x="18.39" y="121.35">- Analitica </tspan><tspan class="cls-40" x="61.09" y="121.35">A</tspan><tspan class="cls-36" x="66.86" y="121.35">v</tspan><tspan x="71.25" y="121.35">anzada</tspan></tspan><tspan class="cls-23"><tspan class="cls-43" x="0" y="132.39">	</tspan><tspan x="18.39" y="132.39">- Reseñas y Encuestas</tspan></tspan></text>
  <text class="cls-37" transform="translate(256.89 152.54)"><tspan class="cls-18"><tspan class="cls-36" x="0" y="0">P</tspan><tspan x="5.92" y="0">ersonalización:</tspan></tspan><tspan class="cls-23"><tspan class="cls-48" x="0" y="11.03">	</tspan><tspan class="cls-56" x="18.39" y="11.03">- Chatbot (intermedio)</tspan></tspan><tspan class="cls-23"><tspan class="cls-48" x="0" y="22.06">	</tspan><tspan class="cls-56" x="18.39" y="22.06">- Nomb</tspan><tspan class="cls-44" x="48.23" y="22.06">r</tspan><tspan x="51.26" y="22.06">e de Emp</tspan><tspan class="cls-44" x="89.21" y="22.06">r</tspan><tspan x="92.24" y="22.06">esa</tspan></tspan><tspan class="cls-23"><tspan class="cls-48" x="0" y="33.1">	</tspan><tspan class="cls-56" x="18.39" y="33.1">- Se</tspan><tspan class="cls-10" x="33.54" y="33.1">r</tspan><tspan x="36.74" y="33.1">vicios</tspan></tspan><tspan class="cls-23"><tspan class="cls-48" x="0" y="44.13">	</tspan><tspan class="cls-56" x="18.39" y="44.13">- Ho</tspan><tspan class="cls-54" x="35.01" y="44.13">r</tspan><tspan x="37.94" y="44.13">ario Abie</tspan><tspan class="cls-50" x="74.09" y="44.13">r</tspan><tspan class="cls-45" x="77.43" y="44.13">t</tspan><tspan x="80.35" y="44.13">o</tspan></tspan><tspan class="cls-23"><tspan class="cls-48" x="0" y="55.16">	</tspan><tspan class="cls-56" x="18.39" y="55.16">- Inte</tspan><tspan class="cls-10" x="38.67" y="55.16">r</tspan><tspan class="cls-53" x="41.86" y="55.16">v</tspan><tspan x="46.25" y="55.16">alo de Citas/Rese</tspan><tspan class="cls-8" x="118.28" y="55.16">r</tspan><tspan class="cls-36" x="121.47" y="55.16">v</tspan><tspan x="125.86" y="55.16">as</tspan></tspan><tspan class="cls-23"><tspan class="cls-48" x="0" y="66.19">	</tspan><tspan class="cls-56" x="18.39" y="66.19">- 1 Modificación Se</tspan><tspan class="cls-10" x="96.57" y="66.19">r</tspan><tspan class="cls-47" x="99.77" y="66.19">v</tspan><tspan x="104.16" y="66.19">cio al mes</tspan></tspan></text>
  <text class="cls-37" transform="translate(490.92 236.61)"><tspan class="cls-18"><tspan class="cls-36" x="0" y="0">P</tspan><tspan x="5.92" y="0">ersonalización:</tspan></tspan><tspan class="cls-23"><tspan class="cls-43" x="0" y="11.03">	</tspan><tspan x="18.39" y="11.03">- Chatbot (intermedio)</tspan></tspan><tspan class="cls-23"><tspan class="cls-43" x="0" y="22.06">	</tspan><tspan x="18.39" y="22.06">- Nomb</tspan><tspan class="cls-44" x="48.23" y="22.06">r</tspan><tspan x="51.26" y="22.06">e de Emp</tspan><tspan class="cls-26" x="89.21" y="22.06">r</tspan><tspan x="92.24" y="22.06">esa</tspan></tspan><tspan class="cls-23"><tspan class="cls-43" x="0" y="33.1">	</tspan><tspan x="18.39" y="33.1">- Se</tspan><tspan class="cls-8" x="33.54" y="33.1">r</tspan><tspan x="36.74" y="33.1">vicios</tspan></tspan><tspan class="cls-23"><tspan class="cls-43" x="0" y="44.13">	</tspan><tspan x="18.39" y="44.13">- Ho</tspan><tspan class="cls-54" x="35.01" y="44.13">r</tspan><tspan x="37.95" y="44.13">ario Abie</tspan><tspan class="cls-50" x="74.09" y="44.13">r</tspan><tspan class="cls-45" x="77.43" y="44.13">t</tspan><tspan x="80.35" y="44.13">o</tspan></tspan><tspan class="cls-23"><tspan class="cls-43" x="0" y="55.16">	</tspan><tspan x="18.39" y="55.16">- Inte</tspan><tspan class="cls-8" x="38.67" y="55.16">r</tspan><tspan class="cls-36" x="41.86" y="55.16">v</tspan><tspan x="46.25" y="55.16">alo de Citas/Rese</tspan><tspan class="cls-8" x="118.28" y="55.16">r</tspan><tspan class="cls-36" x="121.47" y="55.16">v</tspan><tspan x="125.86" y="55.16">as</tspan></tspan><tspan class="cls-23"><tspan class="cls-43" x="0" y="66.19">	</tspan><tspan x="18.39" y="66.19">- 4 Modificación Se</tspan><tspan class="cls-8" x="96.57" y="66.19">r</tspan><tspan class="cls-49" x="99.77" y="66.19">v</tspan><tspan x="104.16" y="66.19">cio al mes</tspan></tspan></text>
  <text class="cls-37" transform="translate(41.87 236.61)"><tspan class="cls-18"><tspan x="0" y="0">SE</tspan><tspan class="cls-24" x="10.7" y="0">R</tspan><tspan class="cls-38" x="14.04" y="0">VICIOS ADICIONALES (COSTE AÑADIDO):</tspan></tspan><tspan class="cls-23"><tspan class="cls-48" x="0" y="11.03">	</tspan><tspan class="cls-56" x="18.39" y="11.03">- Modificaciones de se</tspan><tspan class="cls-8" x="110.37" y="11.03">r</tspan><tspan x="113.57" y="11.03">vicio</tspan></tspan></text>
  <text class="cls-37" transform="translate(256.89 236.61)"><tspan class="cls-18"><tspan x="0" y="0">Se</tspan><tspan class="cls-24" x="10.7" y="0">r</tspan><tspan class="cls-38" x="14.04" y="0">vicios adicionales (Coste añadido):</tspan></tspan><tspan class="cls-23"><tspan class="cls-48" x="0" y="11.03">	</tspan><tspan class="cls-56" x="18.39" y="11.03">- </tspan><tspan class="cls-27" x="23.21" y="11.03">P</tspan><tspan x="28.96" y="11.03">agos en Linea</tspan></tspan><tspan class="cls-23"><tspan class="cls-48" x="0" y="22.06">	</tspan><tspan class="cls-56" x="18.39" y="22.06">- Integ</tspan><tspan class="cls-54" x="43.83" y="22.06">r</tspan><tspan x="46.77" y="22.06">ación con calendario o</tspan></tspan><tspan class="cls-23"><tspan class="cls-48" x="0" y="33.1" xml:space="preserve">		</tspan><tspan x="36.77" y="33.1">Google Calendar</tspan></tspan><tspan class="cls-23"><tspan class="cls-48" x="0" y="44.13">	</tspan><tspan class="cls-56" x="18.39" y="44.13">- Sopo</tspan><tspan class="cls-50" x="44.31" y="44.13">r</tspan><tspan x="47.65" y="44.13">te Multilenguaje</tspan></tspan><tspan class="cls-23"><tspan class="cls-48" x="0" y="55.16">	</tspan><tspan class="cls-56" x="18.39" y="55.16">- Mo</tspan><tspan class="cls-45" x="36.48" y="55.16">t</tspan><tspan x="39.4" y="55.16">or de Recomendaciones</tspan></tspan><tspan class="cls-23"><tspan class="cls-48" x="0" y="66.19">	</tspan><tspan class="cls-56" x="18.39" y="66.19">- Analitica </tspan><tspan class="cls-40" x="61.09" y="66.19">A</tspan><tspan class="cls-36" x="66.86" y="66.19">v</tspan><tspan x="71.25" y="66.19">anzada</tspan></tspan><tspan class="cls-23"><tspan class="cls-48" x="0" y="77.23">	</tspan><tspan class="cls-56" x="18.39" y="77.23">- Reseñas y Encuestas</tspan></tspan><tspan class="cls-23"><tspan class="cls-48" x="0" y="88.26">	</tspan><tspan class="cls-56" x="18.39" y="88.26">- Modificaciones de se</tspan><tspan class="cls-8" x="110.37" y="88.26">r</tspan><tspan x="113.57" y="88.26">vicio adicional</tspan></tspan></text>
  <text class="cls-22" transform="translate(71.46 450.98)"><tspan class="cls-2" x="0" y="0">7</tspan><tspan x="11.09" y="0">5€ / Mes</tspan></text>
  <text class="cls-6" transform="translate(65.12 469.79)"><tspan class="cls-41" x="0" y="0">7</tspan><tspan x="5.24" y="0">50€ </tspan><tspan class="cls-9" x="26.31" y="0">p</tspan><tspan class="cls-28" x="32.52" y="0">a</tspan><tspan x="37.96" y="0">go uni</tspan><tspan class="cls-13" x="67.32" y="0">c</tspan><tspan class="cls-38" x="72.42" y="0">o anual</tspan></text>
  <text class="cls-17" transform="translate(81.85 423.35)"><tspan x="0" y="0">Subsc</tspan><tspan class="cls-12" x="33.65" y="0">r</tspan><tspan class="cls-11" x="38.23" y="0">ipción</tspan></text>
  <text class="cls-29" transform="translate(86.21 396.27)"><tspan class="cls-6" x="0" y="0">Desde</tspan><tspan class="cls-5" x="29.43" y="0"> </tspan><tspan class="cls-20" x="32.64" y="0">100€</tspan></text>
  <text class="cls-37" transform="translate(534 369)"><tspan class="cls-15"><tspan class="cls-55" x="0" y="0">P</tspan><tspan class="cls-39" x="6.59" y="0">a</tspan><tspan x="12.32" y="0">go inicial</tspan></tspan><tspan class="cls-3"><tspan x="-11.11" y="11.03">(pe</tspan><tspan class="cls-42" x="3.71" y="11.03">r</tspan><tspan class="cls-1" x="7.35" y="11.03">sonaliz</tspan><tspan class="cls-46" x="38.91" y="11.03">a</tspan><tspan x="44.35" y="11.03">ción)</tspan></tspan></text>
  <text class="cls-22" transform="translate(509.01 451.49)"><tspan x="0" y="0">250€ / Mes</tspan></text>
  <text class="cls-6" transform="translate(505.76 470.3)"><tspan x="0" y="0">2500€ </tspan><tspan class="cls-9" x="32.38" y="0">p</tspan><tspan class="cls-46" x="38.58" y="0">a</tspan><tspan x="44.03" y="0">go uni</tspan><tspan class="cls-25" x="73.39" y="0">c</tspan><tspan x="78.48" y="0">o anual</tspan></text>
  <text class="cls-17" transform="translate(525.53 423.86)"><tspan x="0" y="0">Subsc</tspan><tspan class="cls-31" x="33.65" y="0">r</tspan><tspan x="38.23" y="0">ipción</tspan></text>
  <text class="cls-29" transform="translate(525.72 396.79)"><tspan class="cls-6" x="0" y="0">Desde</tspan><tspan class="cls-4" x="29.43" y="0"> </tspan><tspan class="cls-14" x="32.64" y="0">1000€</tspan></text>
  <text class="cls-37" transform="translate(312.17 370.53)"><tspan class="cls-15"><tspan class="cls-55" x="0" y="0">P</tspan><tspan class="cls-51" x="6.59" y="0">a</tspan><tspan x="12.32" y="0">go inicial</tspan></tspan><tspan class="cls-3"><tspan x="-11.11" y="11.03">(pe</tspan><tspan class="cls-42" x="3.7" y="11.03">r</tspan><tspan x="7.35" y="11.03">sonaliz</tspan><tspan class="cls-46" x="38.91" y="11.03">a</tspan><tspan x="44.35" y="11.03">ción)</tspan></tspan></text>
  <text class="cls-22" transform="translate(288.22 453.02)"><tspan x="0" y="0">100€ / Mes</tspan></text>
  <text class="cls-6" transform="translate(284.43 471.83)"><tspan x="0" y="0">1000€ </tspan><tspan class="cls-9" x="31.36" y="0">p</tspan><tspan class="cls-28" x="37.56" y="0">a</tspan><tspan x="43.01" y="0">go uni</tspan><tspan class="cls-25" x="72.37" y="0">c</tspan><tspan x="77.46" y="0">o anual</tspan></text>
  <text class="cls-17" transform="translate(303.69 425.39)"><tspan x="0" y="0">Subsc</tspan><tspan class="cls-12" x="33.65" y="0">r</tspan><tspan class="cls-11" x="38.23" y="0">ipción</tspan></text>
  <text class="cls-29" transform="translate(306.8 398.32)"><tspan class="cls-6" x="0" y="0">Desde</tspan><tspan class="cls-5" x="29.43" y="0"> </tspan><tspan class="cls-20" x="32.64" y="0">500€</tspan></text>
</svg>