<?xml version="1.0" encoding="utf-8"?>
<!-- Generator: Adobe Illustrator 28.0.0, SVG Export Plug-In . SVG Version: 6.00 Build 0)  -->
<svg version="1.1" id="Capa_1" xmlns="http://www.w3.org/2000/svg" xmlns:xlink="http://www.w3.org/1999/xlink" x="0px" y="0px"
	 viewBox="0 0 250 100" style="enable-background:new 0 0 250 100;" xml:space="preserve">
<style type="text/css">
	.st0{fill:#5D93CE;}
	.st1{fill:none;}
	.st2{fill:#679DFF;}
</style>
<g id="Capa_8_00000137812790550238460470000016334182749172529036_">
	<path class="st0" d="M10.2,91.3V79.8h10.2c0.9,0,1.6,0.2,2,0.5s0.6,0.9,0.6,1.7v1.4c0,0.5-0.2,1-0.5,1.3c-0.4,0.4-0.9,0.6-1.5,0.6
		c0.6,0,1.2,0.3,1.6,0.7c0.4,0.4,0.6,0.9,0.6,1.5v1.5c0,0.7-0.3,1.3-0.9,1.7c-0.6,0.4-1.4,0.6-2.6,0.6L10.2,91.3L10.2,91.3z
		 M19.2,81.7h-6.3v2.7h6.3c0.4,0,0.7,0,1-0.2c0.2-0.1,0.3-0.4,0.3-0.6v-1.1c0-0.2-0.1-0.5-0.3-0.6C19.9,81.7,19.6,81.6,19.2,81.7z
		 M19.2,86.3h-6.3v2.9h6.3c0.4,0,0.7,0,1.1-0.2c0.2-0.2,0.3-0.5,0.3-0.8v-0.9c0-0.3-0.1-0.6-0.3-0.8C20,86.3,19.6,86.3,19.2,86.3z"
		/>
	<path class="st0" d="M27.5,79.8v9.3h7.9v-9.3h2.7v8.8c0,1.1-0.2,1.8-0.6,2.1c-0.4,0.4-1.2,0.6-2.3,0.6h-7.5c-1.1,0-1.9-0.2-2.3-0.6
		c-0.4-0.4-0.6-1.1-0.6-2.1v-8.8H27.5z"/>
	<path class="st0" d="M54.1,91.3V79.8h2.7v11.5H54.1z"/>
	<path class="st0" d="M58.4,91.3V79.8h1.9l8.3,6.8c0.3,0.2,0.5,0.4,0.7,0.6c0.2,0.2,0.4,0.4,0.6,0.6c0-0.6-0.1-1.1-0.1-1.4
		c0-0.3,0-0.5,0-0.6v-6h2.5v11.5h-1.9l-8.7-7.1c-0.2-0.2-0.4-0.4-0.6-0.5s-0.3-0.3-0.4-0.5c0,0.4,0.1,0.7,0.1,1c0,0.3,0,0.6,0,0.8
		v6.2L58.4,91.3L58.4,91.3z"/>
	<path class="st0" d="M74,91.3V79.8h12.1v2h-9.4v2.6h5.5v2h-5.5v2.8h9.5v2.2L74,91.3L74,91.3z"/>
	<path class="st0" d="M50.1,83.2V82h-7.9v2.5h9.4c0.5,0,0.9,0.4,0.9,0.9l0,0v5.8H40.7c-0.5,0-0.9-0.4-0.9-0.9l0,0v-2.3h2.4v1.2h7.9
		v-2.5h-9.4c-0.5,0-0.9-0.4-0.9-0.9l0,0V80h11.5c0.7,0,1.3,0.5,1.3,1.2v2L50.1,83.2z"/>
	<path class="st0" d="M98.2,83.2V82h-7.9v2.5h9.4c0.5,0,0.9,0.4,0.9,0.9l0,0v5.8H88.8c-0.5,0-0.9-0.4-0.9-0.9l0,0v-2.3h2.4v1.2h7.9
		v-2.5h-9.4c-0.5,0-0.9-0.4-0.9-0.9l0,0V80h11.5c0.7,0,1.3,0.5,1.3,1.2v2L98.2,83.2z"/>
	<path class="st0" d="M112.5,83.2V82h-7.9v2.5h9.4c0.5,0,0.9,0.4,0.9,0.9l0,0v5.8h-11.8c-0.5,0-0.9-0.4-0.9-0.9l0,0v-2.3h2.4v1.2
		h7.9v-2.5h-9.4c-0.5,0-0.9-0.4-0.9-0.9l0,0V80h11.5c0.7,0,1.3,0.5,1.3,1.2l0,0v2L112.5,83.2z"/>
	<path class="st0" d="M146.8,82.6c0-1.1,0.2-1.8,0.5-2.1c0.4-0.4,1-0.6,2-0.6h7.6c1,0,1.7,0.2,2,0.6c0.4,0.4,0.5,1.1,0.5,2.1v6
		c0,1.1-0.2,1.8-0.5,2.1c-0.4,0.4-1,0.6-2,0.6h-7.6c-1,0-1.7-0.2-2-0.6c-0.4-0.4-0.5-1.1-0.5-2.1L146.8,82.6z M149.2,89.2h7.9v-7.3
		h-7.9V89.2z"/>
	<path class="st0" d="M160.9,91.4V79.9h2.4v9.3h7.7v2.2H160.9z"/>
	<path class="st0" d="M174.9,79.9v9.3h6.8v-9.3h2.4v8.8c0,1.1-0.2,1.8-0.5,2.1c-0.4,0.4-1,0.6-2,0.6H175c-1,0-1.7-0.2-2-0.6
		c-0.4-0.4-0.5-1.1-0.5-2.1v-8.8H174.9z"/>
	<path class="st0" d="M192.6,81.9v9.4h-2.4v-9.4h-4.7v-2h11.9v2H192.6z"/>
	<path class="st0" d="M198.7,91.4V79.9h2.4v11.5H198.7z"/>
	<path class="st0" d="M202.5,82.6c0-1.1,0.2-1.8,0.5-2.1c0.4-0.4,1-0.6,2-0.6h7.6c1,0,1.7,0.2,2,0.6c0.4,0.4,0.5,1.1,0.5,2.1v6
		c0,1.1-0.2,1.8-0.5,2.1c-0.4,0.4-1,0.6-2,0.6h-7.6c-1,0-1.7-0.2-2-0.6c-0.4-0.4-0.5-1.1-0.5-2.1V82.6z M204.9,89.2h7.9v-7.3h-7.9
		V89.2z"/>
	<path class="st0" d="M216.6,91.4V79.9h1.7l7.3,6.8c0.2,0.2,0.5,0.4,0.7,0.6c0.2,0.2,0.4,0.4,0.5,0.6c0-0.6-0.1-1.1-0.1-1.4
		c0-0.3,0-0.5,0-0.6v-6h2.1v11.5h-1.7l-7.6-7.1c-0.2-0.2-0.4-0.4-0.5-0.5c-0.1-0.1-0.2-0.3-0.4-0.5c0,0.4,0.1,0.7,0.1,1s0,0.6,0,0.8
		v6.2H216.6z"/>
	<path class="st0" d="M143.3,83.2V82h-6.9v2.5h8.2c0.5,0,0.8,0.5,0.8,0.9v5.8h-10.3c-0.5,0-0.8-0.5-0.8-0.9v-2.3h2.1v1.2h6.9v-2.5
		h-8.2c-0.5,0-0.8-0.5-0.8-0.9V80h10c0.6,0,1.1,0.6,1.1,1.2v2H143.3z"/>
	<path class="st0" d="M239.1,83.2V82h-6.9v2.5h8.2c0.5,0,0.8,0.5,0.8,0.9v5.8H231c-0.5,0-0.8-0.5-0.8-0.9v-2.3h2.1v1.2h6.9v-2.5H231
		c-0.5,0-0.8-0.5-0.8-0.9V80h10c0.6,0,1.2,0.6,1.1,1.2v2L239.1,83.2z"/>
	<path d="M232.1,19.7c3,15.6,5.9,31.2,8.9,46.9h-14c-2-11.7-3.9-23.5-5.9-35.2c-7.3,11.7-15.1,23.5-23.5,35.2h-60.3
		c2-3.5,3.9-7,5.8-10.5h30.1l-0.7-8.4h-25c1.6-3.1,3.2-6.2,4.8-9.3h19.4c-0.2-2.7-0.4-5.4-0.6-8.2h-17.5c-1.3,2.7-2.7,5.4-4.1,8.2
		c-1.6,3.1-3.2,6.2-4.9,9.3c-1.5,2.8-3,5.6-4.5,8.4c-1.9,3.5-3.9,7-5.9,10.5h-18.9c-1.9-3.5-3.7-7-5.5-10.5
		c-1.4-2.8-2.8-5.6-4.2-8.4c-1.5-3.1-3.1-6.2-4.5-9.3c-1.3-2.7-2.6-5.4-3.9-8.2H80c-0.2,2.7-0.4,5.4-0.6,8.2h18.9
		c1.5,3.1,3,6.2,4.5,9.3H78.6L78,56h28.9c1.8,3.5,3.6,7,5.4,10.5H53.5c-8.4-11.7-16.2-23.5-23.4-35.2c-2,11.7-3.9,23.5-5.9,35.2
		H10.2c3-15.6,5.9-31.2,8.9-46.9h21.8c7.1,11.5,14.7,22.9,22.9,34.4l0.6,0.8c1.2-11.7,2.4-23.4,3.6-35.2h49.6c0,3.5-0.1,7-0.1,10.5
		h-4.9v0c4,8.3,8.2,16.5,12.6,24.8c4.6-8.3,9-16.5,13.2-24.8v0h-4.4c0-3.5-0.1-7-0.1-10.5h49.6c1.2,11.7,2.4,23.4,3.6,35.2l0.6-0.8
		c8.2-11.5,15.8-22.9,22.9-34.4L232.1,19.7z"/>
	<path class="st1" d="M125.5,27.4l0.2-0.5"/>
	<polygon class="st2" points="135.9,31.6 125,51.6 114.6,31.6 118,31.6 125,6.9 132.5,31.6 	"/>
</g>
</svg>
