<?xml version="1.0" encoding="UTF-8"?>
<svg id="MORADO" xmlns="http://www.w3.org/2000/svg" viewBox="0 0 400 200">
  <defs>
    <style>
      .cls-1 {
        fill: none;
        stroke: #fff;
        stroke-miterlimit: 10;
        stroke-width: 3px;
      }

      .cls-2 {
        fill: #ad8fff;
        stroke-width: 0px;
      }
    </style>
  </defs>
  <g id="Capa_13" data-name="Capa 13">
    <g>
      <path class="cls-1" d="m341.46,77.36c3.92,20.77,7.84,41.49,11.76,62.26h-18.62c-2.61-15.59-5.18-31.18-7.79-46.76-9.66,15.59-20.02,31.18-31.18,46.76h-80.09c2.61-4.67,5.18-9.33,7.7-14h39.9l-.89-11.11h-33.14c2.15-4.11,4.25-8.21,6.35-12.32h25.81c-.28-3.59-.56-7.23-.84-10.83h-23.24c-1.77,3.59-3.59,7.23-5.46,10.83-2.1,4.11-4.25,8.21-6.44,12.32-1.96,3.69-3.97,7.42-5.97,11.11-2.57,4.67-5.13,9.33-7.79,14h-25.11c-2.47-4.67-4.95-9.33-7.33-14-1.91-3.69-3.78-7.42-5.6-11.11-2.05-4.11-4.06-8.21-6.02-12.32-1.73-3.59-3.45-7.23-5.13-10.83h-22.87c-.28,3.59-.56,7.23-.84,10.83h25.06c1.96,4.11,3.97,8.21,5.97,12.32h-31.97l-.89,11.11h38.41c2.38,4.67,4.81,9.33,7.23,14h-78.08c-11.11-15.59-21.52-31.18-31.13-46.76-2.61,15.59-5.18,31.18-7.79,46.76h-18.67c3.92-20.77,7.84-41.49,11.76-62.26h28.94c9.43,15.21,19.56,30.43,30.38,45.64l.75,1.03c1.59-15.54,3.17-31.13,4.76-46.67h65.85c-.05,4.67-.14,9.33-.19,14h-6.49v.05c5.32,10.97,10.87,21.94,16.71,32.9,6.07-10.97,11.9-21.94,17.5-32.9v-.05h-5.88c-.05-4.67-.14-9.33-.19-14h65.85c1.59,15.54,3.17,31.13,4.76,46.67l.75-1.03c10.87-15.21,21-30.43,30.38-45.64h29.03Z"/>
      <polygon class="cls-2" points="213.72 93.12 199.25 119.77 185.44 93.12 189.92 93.12 199.25 60.38 209.19 93.12 213.72 93.12"/>
    </g>
  </g>
</svg>